<?xml version="1.0" standalone="no"?>
<!DOCTYPE svg PUBLIC "-//W3C//DTD SVG 20010904//EN"
 "http://www.w3.org/TR/2001/REC-SVG-20010904/DTD/svg10.dtd">
<svg version="1.0" xmlns="http://www.w3.org/2000/svg"
 width="128.000000pt" height="128.000000pt" viewBox="0 0 128.000000 128.000000"
 preserveAspectRatio="xMidYMid meet">
<metadata>
Created by potrace 1.11, written by Peter Selinger 2001-2013
</metadata>
<g transform="translate(0.000000,128.000000) scale(0.100000,-0.100000)"
fill="#000000" stroke="none">
<path d="M623 1244 c-37 -18 -67 -62 -78 -111 -6 -28 -9 -31 -29 -23 -12 4
-38 11 -57 14 -19 3 -45 8 -59 12 -62 14 -74 11 -94 -31 -28 -61 -82 -118
-144 -154 -10 -6 -8 -23 12 -82 14 -41 28 -90 31 -109 3 -19 10 -51 15 -71 6
-20 13 -52 15 -70 10 -61 14 -333 6 -382 -4 -26 -5 -50 -1 -52 4 -3 25 -7 46
-11 22 -3 68 -13 104 -21 76 -17 94 -21 135 -29 17 -2 46 -9 65 -14 19 -5 46
-11 60 -14 14 -3 98 -21 187 -42 190 -43 192 -43 192 44 0 108 30 206 73 236
14 10 17 21 13 42 -14 62 -34 177 -39 217 -3 23 -8 67 -12 97 -13 101 -8 232
11 282 6 15 -25 27 -110 43 -16 3 -41 7 -54 10 -25 5 -41 21 -41 42 0 27 -49
120 -77 146 -49 46 -115 58 -170 31z m138 -60 c19 -17 63 -123 55 -131 -3 -3
-38 2 -78 11 -40 8 -89 18 -108 21 -47 8 -51 14 -35 59 25 72 108 92 166 40z"/>
</g>
</svg>
